<svg width="37" height="37" viewBox="0 0 37 37" fill="none" xmlns="http://www.w3.org/2000/svg">
<path d="M18.8178 36.1662C28.6823 36.1662 36.6791 28.1694 36.6791 18.3049C36.6791 8.4404 28.6823 0.443634 18.8178 0.443634C8.9533 0.443634 0.956543 8.4404 0.956543 18.3049C0.956543 28.1694 8.9533 36.1662 18.8178 36.1662Z" fill="#D39C50"/>
<path d="M23.2031 8.85526H14.4335C11.6363 8.85526 9.36865 11.1229 9.36865 13.9201V22.6897C9.36865 25.4869 11.6363 27.7545 14.4335 27.7545H23.2031C26.0003 27.7545 28.2679 25.4869 28.2679 22.6897V13.9201C28.2679 11.1229 26.0003 8.85526 23.2031 8.85526Z" stroke="#E3E3C5" stroke-width="2.12116" stroke-miterlimit="10"/>
<path d="M18.8179 22.9939C21.4076 22.9939 23.507 20.8946 23.507 18.3049C23.507 15.7152 21.4076 13.6159 18.8179 13.6159C16.2283 13.6159 14.1289 15.7152 14.1289 18.3049C14.1289 20.8946 16.2283 22.9939 18.8179 22.9939Z" stroke="#E3E3C5" stroke-width="2.08593" stroke-miterlimit="10"/>
<path d="M24.2229 13.8698C24.9463 13.8698 25.5327 13.2833 25.5327 12.56C25.5327 11.8366 24.9463 11.2501 24.2229 11.2501C23.4995 11.2501 22.9131 11.8366 22.9131 12.56C22.9131 13.2833 23.4995 13.8698 24.2229 13.8698Z" fill="#E3E3C5" stroke="#E3E3C5" stroke-width="0.06497" stroke-miterlimit="10"/>
</svg>
