<svg width="36" height="36" viewBox="0 0 36 36" fill="none" xmlns="http://www.w3.org/2000/svg">
<g clip-path="url(#clip0_51_197)">
<path d="M14.8686 29.8247C22.5959 29.8247 28.8602 23.5605 28.8602 15.8331C28.8602 8.10575 22.5959 1.84149 14.8686 1.84149C7.14121 1.84149 0.876953 8.10575 0.876953 15.8331C0.876953 23.5605 7.14121 29.8247 14.8686 29.8247Z" fill="#E3E3C5"/>
<path d="M17.7108 0.02771C27.4138 0.02771 35.28 7.89393 35.28 17.5969C35.28 27.2999 27.4138 35.1661 17.7108 35.1661C8.00782 35.1661 0.141602 27.2999 0.141602 17.5969C0.141602 7.89393 8.00782 0.02771 17.7108 0.02771ZM23.7714 24.7588C24.094 23.7677 25.609 13.8858 25.7951 11.938C25.8518 11.3487 25.6649 10.9566 25.3007 10.7809C24.8591 10.5692 24.2058 10.6747 23.4464 10.9486C22.4058 11.3239 9.1051 16.9708 8.33684 17.2983C7.60852 17.6081 6.91933 17.9451 6.91933 18.4347C6.91933 18.7789 7.12377 18.9721 7.68598 19.1726C8.27056 19.381 9.74398 19.8274 10.6153 20.0678C11.4538 20.2994 12.4065 20.0981 12.9416 19.7659C13.5078 19.4137 20.0499 15.0374 20.5187 14.6533C20.9875 14.2699 21.362 14.7611 20.9787 15.1452C20.5954 15.5285 16.1056 19.8865 15.5131 20.4902C14.7935 21.2226 15.3038 21.982 15.787 22.2863C16.3372 22.6337 20.2983 25.2898 20.8948 25.7163C21.4914 26.1427 22.0959 26.336 22.6502 26.336C23.2044 26.3352 23.4959 25.6053 23.7714 24.7588Z" fill="#D39C50"/>
</g>
<defs>
<clipPath id="clip0_51_197">
<rect width="35.1384" height="35.1384" fill="white" transform="translate(0.141602 0.02771)"/>
</clipPath>
</defs>
</svg>
