<svg width="36" height="36" viewBox="0 0 36 36" fill="none" xmlns="http://www.w3.org/2000/svg">
<g clip-path="url(#clip0_51_194)">
<path d="M17.9086 35.1661C27.6118 35.1661 35.4778 27.3001 35.4778 17.5969C35.4778 7.89372 27.6118 0.02771 17.9086 0.02771C8.20536 0.02771 0.339355 7.89372 0.339355 17.5969C0.339355 27.3001 8.20536 35.1661 17.9086 35.1661Z" fill="#D39C50"/>
<path d="M23.0094 4.89593C23.0094 4.55911 23.0423 4.23015 23.1026 3.91089H18.1864V15.4524C18.1743 15.4479 18.1625 15.4429 18.1504 15.4384V21.9798C18.1737 22.1226 18.1864 22.2689 18.1864 22.4183C18.1864 23.9091 16.9778 25.1177 15.4869 25.1177C13.996 25.1177 12.7875 23.9091 12.7875 22.4183C12.7875 20.9274 13.9961 19.7188 15.4869 19.7188V14.9678C11.2131 14.9678 7.74854 18.4324 7.74854 22.7062C7.74854 26.98 11.2131 30.4446 15.4869 30.4446C19.7607 30.4446 23.2253 26.98 23.2253 22.7062C23.2253 22.5449 23.2189 22.3852 23.2092 22.2263H23.2253V13.3323C24.6549 14.1586 26.3061 14.6444 28.0683 14.6776V10.1634C25.2555 10.051 23.0094 7.73631 23.0094 4.89593Z" fill="#E3E3C5"/>
</g>
<defs>
<clipPath id="clip0_51_194">
<rect width="35.1384" height="35.1384" fill="white" transform="translate(0.339355 0.02771)"/>
</clipPath>
</defs>
</svg>
